<?xml version="1.0" standalone="no"?>
<!DOCTYPE svg PUBLIC "-//W3C//DTD SVG 20010904//EN"
 "http://www.w3.org/TR/2001/REC-SVG-20010904/DTD/svg10.dtd">
<svg version="1.0" xmlns="http://www.w3.org/2000/svg"
 width="416.000000pt" height="90.000000pt" viewBox="0 0 416.000000 90.000000"
 preserveAspectRatio="xMidYMid meet">
<metadata>
Created by potrace 1.15, written by Peter Selinger 2001-2017
</metadata>
<g transform="translate(0.000000,90.000000) scale(0.100000,-0.100000)"
fill="#000000" stroke="none">
<path d="M2035 711 c-11 -19 -105 -413 -105 -442 0 -37 27 -50 46 -24 8 10 14
30 14 44 0 14 21 113 47 219 41 165 45 194 33 202 -19 12 -27 12 -35 1z"/>
<path d="M1377 703 c-3 -5 -8 -24 -12 -43 -4 -19 -27 -108 -51 -197 -55 -202
-56 -234 -9 -223 6 1 27 4 47 5 79 5 175 90 198 176 25 92 -55 130 -142 67
-16 -11 -31 -19 -32 -17 -2 2 7 40 20 84 13 44 24 91 24 106 0 34 -30 64 -43
42z m123 -253 c0 -31 -25 -82 -51 -107 -27 -25 -118 -68 -126 -59 -3 3 3 31
13 62 16 49 27 63 68 91 56 38 96 44 96 13z"/>
<path d="M2642 673 c-141 -76 -253 -245 -222 -337 23 -72 90 -104 168 -81 110
33 205 128 206 208 1 59 -18 67 -101 40 -38 -12 -78 -25 -90 -28 -27 -7 -35
-28 -20 -49 11 -15 19 -14 86 9 41 14 76 23 78 21 2 -2 -11 -23 -29 -47 -45
-59 -121 -109 -165 -109 -44 0 -83 37 -83 80 0 68 84 179 175 231 57 33 81 36
106 13 22 -20 39 -11 39 21 0 29 -34 55 -71 55 -14 0 -49 -12 -77 -27z"/>
<path d="M357 643 c-31 -48 -182 -193 -202 -193 -19 0 -19 -5 5 66 12 32 22
79 23 104 2 40 -1 45 -20 48 -25 4 -19 20 -78 -217 -40 -159 -42 -216 -10
-216 17 0 22 10 31 69 6 37 18 72 25 77 75 49 185 -6 210 -104 13 -53 20 -61
49 -52 55 17 -18 167 -103 211 l-28 15 81 86 c65 69 80 91 78 112 -5 41 -33
38 -61 -6z"/>
<path d="M1156 552 c-2 -4 -12 -39 -21 -77 -18 -78 -52 -143 -91 -174 -34 -26
-50 -26 -64 -1 -9 16 -6 40 14 110 31 107 32 116 6 123 -26 7 -34 -5 -59 -99
-28 -108 -28 -148 4 -179 39 -40 80 -34 131 20 l43 44 3 -37 c2 -29 8 -38 25
-40 26 -4 29 6 38 123 3 44 8 102 11 129 5 35 2 51 -7 57 -17 11 -26 11 -33 1z"/>
<path d="M3352 548 c-6 -6 -12 -18 -12 -26 0 -8 -16 -73 -36 -144 -37 -132
-36 -154 2 -146 13 2 22 24 36 85 18 77 23 86 70 128 50 44 98 60 98 31 0 -7
-13 -57 -30 -110 -31 -102 -30 -129 3 -124 17 2 24 17 39 78 10 41 26 86 37
100 26 35 107 84 127 76 22 -8 13 -67 -22 -151 -34 -79 -35 -99 -6 -103 19 -3
26 6 48 54 39 88 58 181 43 215 -17 42 -63 48 -126 16 -48 -25 -49 -25 -61 -6
-17 27 -75 25 -126 -5 l-41 -24 0 31 c0 34 -21 47 -43 25z"/>
<path d="M685 503 c-4 -21 -15 -84 -27 -141 -20 -108 -19 -136 8 -130 11 2 23
30 39 92 19 76 27 94 58 123 40 36 58 41 77 18 20 -24 50 -19 50 9 0 54 -73
75 -123 36 -33 -26 -37 -25 -37 5 0 18 -5 25 -20 25 -14 0 -21 -9 -25 -37z"/>
<path d="M3059 538 c0 -2 -13 -66 -29 -143 -24 -118 -26 -142 -15 -154 19 -20
45 2 45 38 0 38 26 118 49 150 11 16 34 34 51 41 27 11 32 11 44 -5 15 -21 49
-16 54 7 5 26 -34 58 -69 58 -17 0 -44 -9 -59 -20 l-29 -20 -3 22 c-2 13 -11
24 -20 26 -10 2 -18 2 -19 0z"/>
<path d="M3945 518 c-93 -51 -158 -205 -107 -251 26 -24 60 -21 98 8 42 32 44
31 44 -6 0 -25 3 -30 21 -27 19 3 26 19 52 129 17 70 27 134 24 143 -8 19 -99
22 -132 4z m75 -56 c0 -56 -89 -162 -135 -162 -15 0 -17 7 -12 41 6 49 49 107
98 131 45 24 49 23 49 -10z"/>
<path d="M530 498 c-5 -13 -24 -74 -41 -136 -24 -89 -28 -116 -18 -128 21 -25
38 -15 49 29 6 23 23 84 36 135 14 52 23 100 20 108 -8 22 -35 17 -46 -8z"/>
<path d="M1732 503 c-30 -15 -57 -41 -109 -107 -38 -50 -8 -141 53 -158 45
-12 128 9 164 42 56 52 32 67 -41 25 -50 -28 -100 -32 -122 -10 -29 28 -10 50
55 64 46 9 70 21 95 46 38 38 42 66 13 95 -24 24 -63 25 -108 3z"/>
<path d="M2904 512 c-13 -8 -74 -225 -74 -260 0 -21 3 -24 32 -26 16 -1 88
270 74 284 -12 12 -17 12 -32 2z"/>
</g>
</svg>
